<?xml version="1.0" encoding="UTF-8" standalone="no"?>
<!-- Created with Inkscape (http://www.inkscape.org/) -->

<svg
   width="127.99972"
   height="128"
   viewBox="0 0 128 128.00029"
   version="1.1"
   id="svg1"
   xml:space="preserve"
   inkscape:version="1.4.2 (ebf0e940d0, 2025-05-08)"
   sodipodi:docname="LogoVideoCurio.svg"
   xmlns:inkscape="http://www.inkscape.org/namespaces/inkscape"
   xmlns:sodipodi="http://sodipodi.sourceforge.net/DTD/sodipodi-0.dtd"
   xmlns="http://www.w3.org/2000/svg"
   xmlns:svg="http://www.w3.org/2000/svg"><sodipodi:namedview
     id="namedview1"
     pagecolor="#ffffff"
     bordercolor="#000000"
     borderopacity="0.25"
     inkscape:showpageshadow="2"
     inkscape:pageopacity="0.0"
     inkscape:pagecheckerboard="true"
     inkscape:deskcolor="#d1d1d1"
     inkscape:document-units="px"
     inkscape:zoom="4"
     inkscape:cx="69.375"
     inkscape:cy="72.625"
     inkscape:window-width="1266"
     inkscape:window-height="1355"
     inkscape:window-x="20"
     inkscape:window-y="20"
     inkscape:window-maximized="0"
     inkscape:current-layer="layer2" /><defs
     id="defs1" /><g
     inkscape:groupmode="layer"
     id="layer2"
     inkscape:label="Logo"
     style="display:inline"
     transform="translate(-94.905173,-127.57145)"><g
       id="g3"
       style="display:inline;fill:#90e0ef;fill-opacity:0;stroke-width:0.99996001;stroke-dasharray:none"
       transform="matrix(3.8461624,0,0,3.8461624,-266.11567,-359.08905)"><circle
         style="fill:#90e0ef;fill-opacity:0;stroke:#0077b6;stroke-width:0.99996001;stroke-linecap:round;stroke-linejoin:round;stroke-dasharray:none;stroke-opacity:1"
         id="path2"
         cx="110.50517"
         cy="143.17145"
         inkscape:label="path2"
         r="12" /><path
         style="fill:#90e0ef;fill-opacity:0;stroke:#0077b6;stroke-width:0.99996001;stroke-linecap:round;stroke-linejoin:round;stroke-dasharray:none;stroke-opacity:1"
         d="M 121.1878,138.26093 H 107.87868"
         id="path3" /><path
         style="display:inline;fill:#90e0ef;fill-opacity:0;stroke:#0077b6;stroke-width:0.99996001;stroke-linecap:round;stroke-linejoin:round;stroke-dasharray:none;stroke-opacity:1"
         d="M 113.44168,148.23841 H 100.13256"
         id="path3-2" /><path
         style="display:inline;fill:#90e0ef;fill-opacity:0;stroke:#0077b6;stroke-width:0.99996001;stroke-linecap:round;stroke-linejoin:round;stroke-dasharray:none;stroke-opacity:1"
         d="m 120.81439,149.07534 -7.82288,-10.76728"
         id="path3-3" /><path
         style="display:inline;fill:#90e0ef;fill-opacity:0;stroke:#0077b6;stroke-width:0.99996001;stroke-linecap:round;stroke-linejoin:round;stroke-dasharray:none;stroke-opacity:1"
         d="m 108.08155,148.12773 -7.63378,-10.90218"
         id="path3-3-2" /><path
         style="display:inline;fill:#90e0ef;fill-opacity:0;stroke:#0077b6;stroke-width:0.99996001;stroke-linecap:round;stroke-linejoin:round;stroke-dasharray:none;stroke-opacity:1"
         d="m 110.41476,154.82876 5.62466,-12.06214"
         id="path3-3-2-7-2" /><path
         style="display:inline;fill:#90e0ef;fill-opacity:0;stroke:#0077b6;stroke-width:0.99996001;stroke-linecap:round;stroke-linejoin:round;stroke-dasharray:none;stroke-opacity:1"
         d="m 105.28725,143.45544 5.62466,-12.06214"
         id="path3-3-2-7" /><path
         style="display:inline;fill:#90e0ef;fill-opacity:1;stroke:none;stroke-width:3.77937647;stroke-linecap:butt;stroke-linejoin:bevel;stroke-dasharray:none;stroke-opacity:1"
         d="m 389.22482,528.27968 -7.55125,-10.7845 0.51154,-0.73263 c 1.68709,-2.41622 3.29147,-4.30677 5.44387,-6.41489 7.30627,-7.15594 16.69271,-11.37042 27.09867,-12.1672 0.62231,-0.0476 1.14368,-0.0744 1.1586,-0.0595 0.0322,0.0322 -18.95041,40.77146 -19.04509,40.87326 -0.0358,0.0385 -3.46315,-4.78304 -7.61634,-10.71453 z"
         id="path9"
         transform="scale(0.26458333)" /><path
         style="display:inline;fill:#90e0ef;fill-opacity:1;stroke:none;stroke-width:3.77937647;stroke-linecap:round;stroke-linejoin:round;stroke-dasharray:none;stroke-opacity:1"
         d="m 410.95693,519.77751 c 0.34958,-0.78449 10.03593,-21.53182 10.06352,-21.55519 0.0613,-0.052 2.44613,0.23947 3.71873,0.45446 4.24106,0.71646 8.04347,1.94745 11.93298,3.86315 7.3898,3.63971 13.43648,9.17783 17.77978,16.28441 0.43492,0.71162 0.79264,1.32452 0.79494,1.36199 0.002,0.0375 -10.00983,0.0681 -22.24916,0.0681 h -22.25333 z"
         id="path10"
         transform="scale(0.26458333)" /><path
         style="display:inline;fill:#90e0ef;fill-opacity:1;stroke:none;stroke-width:3.77937647;stroke-linecap:round;stroke-linejoin:round;stroke-dasharray:none;stroke-opacity:1"
         d="m 444.21153,542.4045 c -6.79494,-9.34988 -12.43,-17.11608 -12.52235,-17.25822 l -0.16791,-0.25844 h 12.99379 12.99379 l 0.3588,0.93122 c 3.69823,9.59825 3.7533,20.45407 0.15319,30.19546 -0.4407,1.19247 -1.28603,3.20757 -1.39482,3.32497 -0.033,0.0356 -5.61955,-7.5851 -12.41449,-16.93499 z"
         id="path11"
         transform="scale(0.26458333)" /><path
         style="display:inline;fill:#90e0ef;fill-opacity:1;stroke:none;stroke-width:3.77937647;stroke-linecap:round;stroke-linejoin:round;stroke-dasharray:none;stroke-opacity:1"
         d="m 420.48065,583.91488 c 0.0308,-0.0803 4.27643,-9.19716 9.43474,-20.25981 l 9.37874,-20.1139 7.38793,10.16708 c 4.06337,5.5919 7.38794,10.20973 7.38794,10.26185 0,0.0521 -0.29206,0.52964 -0.64903,1.06115 -6.41149,9.54638 -16.28437,16.1199 -27.50138,18.31085 -1.70312,0.33266 -3.35731,0.566 -4.68463,0.66082 -0.72091,0.0515 -0.80413,0.0418 -0.75431,-0.088 z"
         id="path12"
         transform="scale(0.26458333)" /><path
         style="display:inline;fill:#ffffff;fill-opacity:0;stroke:none;stroke-width:3.77937647;stroke-linecap:round;stroke-linejoin:round;stroke-dasharray:none;stroke-opacity:1"
         d="m 412.30944,583.74524 c -12.99614,-1.74204 -24.19819,-8.93002 -31.11871,-19.96785 l -0.67673,-1.07934 4.09072,-0.0316 4.09072,-0.0316 1.58321,1.18213 c 2.83488,2.11671 4.75156,3.28645 7.79335,4.75625 6.27443,3.03182 12.71929,4.49806 19.77247,4.49834 l 2.4769,1e-4 -1.73455,3.68776 c -0.954,2.02827 -2.11774,4.48378 -2.58608,5.45668 l -0.85153,1.76893 -0.61038,-0.0114 c -0.33571,-0.006 -1.33893,-0.10909 -2.22939,-0.22845 z"
         id="path17"
         transform="scale(0.26458333)" /><path
         style="display:inline;fill:#90e0ef;fill-opacity:1;stroke:none;stroke-width:3.77937647;stroke-linecap:round;stroke-linejoin:round;stroke-dasharray:none;stroke-opacity:1"
         d="m 414.1867,584.02222 c -12.30335,-1.06986 -23.36261,-7.13412 -30.78999,-16.88344 -0.77451,-1.01663 -2.26978,-3.23391 -2.77606,-4.11651 l -0.24754,-0.43154 h 22.45403 c 12.34971,0 22.43847,0.0307 22.41945,0.0681 -0.019,0.0375 -2.27662,4.88207 -5.0169,10.76576 -2.74028,5.8837 -5.02679,10.69201 -5.08112,10.68514 -0.0543,-0.007 -0.48718,-0.0463 -0.96187,-0.0876 z"
         id="path13"
         transform="scale(0.26458333)" /><path
         style="display:inline;fill:#90e0ef;fill-opacity:1;stroke:none;stroke-width:3.77937647;stroke-linecap:round;stroke-linejoin:round;stroke-dasharray:none;stroke-opacity:1"
         d="m 377.65855,556.98072 c -2.04241,-5.20149 -3.00379,-10.26191 -3.00749,-15.83067 -0.003,-4.64071 0.60095,-8.60419 1.9799,-12.9916 0.62359,-1.98407 2.39396,-6.31615 2.52125,-6.16946 0.0606,0.0699 24.82639,35.46842 24.98964,35.71853 l 0.16306,0.24984 h -13.13143 -13.13144 z"
         id="path14"
         transform="scale(0.26458333)" /><path
         style="display:inline;fill:#00b4d8;fill-opacity:1;stroke:none;stroke-width:3.77937647;stroke-linecap:round;stroke-linejoin:round;stroke-dasharray:none;stroke-opacity:1"
         d="m 377.61346,556.67884 c -1.67593,-4.30719 -2.85151,-9.88205 -2.83931,-13.46469 l 0.002,-0.73046 0.56739,1.46091 c 1.24624,3.20885 2.824,6.23862 4.70755,9.03988 0.76508,1.13784 2.27613,3.14221 2.98701,3.9622 0.30186,0.34818 0.60858,0.70975 0.68161,0.8035 0.1258,0.16147 -0.0186,0.17044 -2.74538,0.17044 h -2.87817 z"
         id="path20"
         transform="scale(0.26458333)" /><path
         style="display:inline;fill:#00b4d8;fill-opacity:1;stroke:none;stroke-width:3.77937647;stroke-linecap:round;stroke-linejoin:round;stroke-dasharray:none;stroke-opacity:1"
         d="m 413.14467,583.86908 c -8.42595,-0.99452 -15.91454,-4.10844 -22.49798,-9.35514 -1.69373,-1.34982 -5.0148,-4.67022 -6.3608,-6.3595 -1.41083,-1.77065 -3.76816,-5.21028 -3.76816,-5.49821 0,-0.0334 1.84343,-0.0607 4.09652,-0.0607 h 4.09651 l 1.1384,0.88882 c 6.32769,4.94039 14.14843,8.19602 22.17548,9.23127 2.16241,0.27888 4.97519,0.43301 6.78366,0.37171 l 1.5244,-0.0517 -0.22328,0.50182 c -0.25858,0.58117 -3.1939,6.81264 -4.23916,8.99943 l -0.70993,1.48525 -0.44781,-0.0104 c -0.2463,-0.006 -0.95183,-0.0699 -1.56785,-0.14264 z"
         id="path21"
         transform="scale(0.26458333)" /><path
         style="display:inline;fill:#00b4d8;fill-opacity:1;stroke:none;stroke-width:3.77937647;stroke-linecap:round;stroke-linejoin:round;stroke-dasharray:none;stroke-opacity:1"
         d="m 420.59015,583.8539 c 0.0363,-0.0949 1.25188,-2.72031 2.7012,-5.83416 l 2.63513,-5.66154 0.45033,-0.0617 c 0.24768,-0.0339 1.11863,-0.21695 1.93545,-0.40668 7.79673,-1.81102 15.24438,-5.84906 21.08047,-11.42961 l 1.23496,-1.18089 0.23965,0.31895 c 0.94783,1.26148 3.08554,4.30664 3.08636,4.39651 0.002,0.19407 -1.62598,2.5225 -2.70432,3.86841 -7.08538,8.84349 -17.30979,14.57624 -28.36532,15.90423 -2.32942,0.2798 -2.36844,0.28128 -2.29391,0.0865 z"
         id="path22"
         transform="scale(0.26458333)" /><path
         style="display:inline;fill:#00b4d8;fill-opacity:1;stroke:none;stroke-width:3.77937647;stroke-linecap:round;stroke-linejoin:round;stroke-dasharray:none;stroke-opacity:1"
         d="m 455.3133,557.47708 c -0.71164,-0.9613 -1.32692,-1.79165 -1.36727,-1.84522 -0.0403,-0.0536 0.20087,-0.46993 0.53604,-0.92524 1.52866,-2.07662 3.10495,-4.6395 4.18367,-6.80219 0.60873,-1.22042 1.81234,-4.01029 1.81234,-4.20086 0,-0.0728 0.02,-0.11237 0.0443,-0.088 0.0708,0.0708 -0.22348,2.94155 -0.43806,4.27347 -0.29798,1.84955 -0.81418,4.05995 -1.36469,5.84363 -0.46417,1.50393 -1.55462,4.4011 -1.94087,5.15661 l -0.17158,0.33561 z"
         id="path23"
         transform="scale(0.26458333)" /><circle
         style="display:inline;fill:#90e0ef;fill-opacity:0;stroke:#0077b6;stroke-width:0.99996001;stroke-linecap:round;stroke-linejoin:round;stroke-dasharray:none;stroke-opacity:1"
         id="circle24"
         cx="110.50517"
         cy="143.17145"
         inkscape:label="path4"
         r="15" /></g></g></svg>
